<?xml version="1.0" standalone="no"?>
<!DOCTYPE svg PUBLIC "-//W3C//DTD SVG 20010904//EN"
 "http://www.w3.org/TR/2001/REC-SVG-20010904/DTD/svg10.dtd">
<svg version="1.0" xmlns="http://www.w3.org/2000/svg"
 width="287.000000pt" height="300.000000pt" viewBox="0 0 287.000000 300.000000"
 preserveAspectRatio="xMidYMid meet">
<metadata>
Created by potrace 1.16, written by Peter Selinger 2001-2019
</metadata>
<g transform="translate(0.000000,300.000000) scale(0.100000,-0.100000)"
fill="#000000" stroke="none">
<path d="M179 2973 c-6 -16 -49 -129 -95 -253 l-84 -225 0 -1052 0 -1053 355
0 355 0 0 -195 0 -195 203 0 202 0 195 195 195 195 295 0 295 0 388 388 387
387 0 918 0 917 -1340 0 -1340 0 -11 -27z m2421 -955 l0 -713 -222 -222 -223
-223 -360 0 -360 0 -192 -192 -193 -193 0 193 0 192 -295 0 -295 0 0 935 0
935 1070 0 1070 0 0 -712z"/>
<path d="M1170 1830 l0 -400 135 0 135 0 0 400 0 400 -135 0 -135 0 0 -400z"/>
<path d="M1885 2208 c-3 -13 -4 -192 -3 -398 l3 -375 138 -3 137 -3 0 401 0
400 -135 0 c-131 0 -135 -1 -140 -22z"/>
</g>
</svg>
