<svg xmlns="http://www.w3.org/2000/svg" xmlns:xlink="http://www.w3.org/1999/xlink" width="32" height="32" preserveAspectRatio="xMidYMid meet" viewBox="0 0 32 32" style="-ms-transform: rotate(360deg); -webkit-transform: rotate(360deg); transform: rotate(360deg);"><path d="M23.5 22h-15A6.5 6.5 0 0 1 7.2 9.14a9 9 0 0 1 17.6 0A6.5 6.5 0 0 1 23.5 22zM16 4a7 7 0 0 0-6.94 6.14L9 11h-.86a4.5 4.5 0 0 0 .36 9h15a4.5 4.5 0 0 0 .36-9H23l-.1-.82A7 7 0 0 0 16 4z" fill="#000000"/><path d="M14 30a.93.93 0 0 1-.45-.11a1 1 0 0 1-.44-1.34l2-4a1 1 0 1 1 1.78.9l-2 4A1 1 0 0 1 14 30z" fill="#000000"/><path d="M20 30a.93.93 0 0 1-.45-.11a1 1 0 0 1-.44-1.34l2-4a1 1 0 1 1 1.78.9l-2 4A1 1 0 0 1 20 30z" fill="#000000"/><path d="M8 30a.93.93 0 0 1-.45-.11a1 1 0 0 1-.44-1.34l2-4a1 1 0 1 1 1.78.9l-2 4A1 1 0 0 1 8 30z" fill="#000000"/><rect x="0" y="0" width="32" height="32" fill="rgba(0, 0, 0, 0)" /></svg>